<svg xmlns="http://www.w3.org/2000/svg" width="35.135" height="13" viewBox="0 0 35.135 13">
  <path id="beard" d="M11.254,20.936a12.907,12.907,0,0,0,4.535-.768,9.029,9.029,0,0,0,3.442-2.212,8.92,8.92,0,0,0,3.422,2.212,12.853,12.853,0,0,0,4.529.768,12.012,12.012,0,0,0,3.78-.573,9.968,9.968,0,0,0,3.052-1.6,7.529,7.529,0,0,0,2.043-2.394,6.181,6.181,0,0,0,.729-2.954,3.6,3.6,0,0,0-.547-2.128,1.794,1.794,0,0,0-1.549-.761,1.774,1.774,0,0,0-.781.176,2.239,2.239,0,0,0-.69.54,3.149,3.149,0,0,1-.586.481,2.8,2.8,0,0,1-.722.325,2.9,2.9,0,0,1-.826.117,3.041,3.041,0,0,1-1.607-.429A8.258,8.258,0,0,1,28.1,10.675q-.67-.631-1.457-1.256a7.45,7.45,0,0,0-1.848-1.054,6.811,6.811,0,0,0-2.557-.429,5.362,5.362,0,0,0-1.653.247,4.208,4.208,0,0,0-1.353.716,4.534,4.534,0,0,0-1.379-.716,5.318,5.318,0,0,0-1.64-.247,6.811,6.811,0,0,0-2.557.429,7.45,7.45,0,0,0-1.848,1.054q-.787.625-1.457,1.256a8.4,8.4,0,0,1-1.373,1.061,3.032,3.032,0,0,1-1.614.429,2.884,2.884,0,0,1-.833-.117,2.942,2.942,0,0,1-.722-.325,2.461,2.461,0,0,1-.566-.481,2.387,2.387,0,0,0-.7-.54,1.774,1.774,0,0,0-.781-.176,1.811,1.811,0,0,0-1.555.761,3.566,3.566,0,0,0-.553,2.128,6.137,6.137,0,0,0,.735,2.954,7.64,7.64,0,0,0,2.043,2.394,9.856,9.856,0,0,0,3.058,1.6A12.047,12.047,0,0,0,11.254,20.936Zm0-2.16a9.72,9.72,0,0,1-2.869-.41A8.247,8.247,0,0,1,6.036,17.24a5.628,5.628,0,0,1-1.594-1.666,4.069,4.069,0,0,1-.605-2.056q-.013-.247.15-.286a.382.382,0,0,1,.306.052,3.86,3.86,0,0,0,1.373.761,5.414,5.414,0,0,0,1.7.267,5.305,5.305,0,0,0,1.965-.345,7.023,7.023,0,0,0,1.581-.865q.709-.521,1.308-1.041.638-.534,1.23-.982a5.416,5.416,0,0,1,1.256-.716,4.02,4.02,0,0,1,1.51-.267,3.008,3.008,0,0,1,1.5.358,2.59,2.59,0,0,1,.989.956.634.634,0,0,0,.527.325.6.6,0,0,0,.514-.325,2.689,2.689,0,0,1,1-.956,3.008,3.008,0,0,1,1.5-.358,4.071,4.071,0,0,1,1.516.267,5.244,5.244,0,0,1,1.256.716q.586.449,1.21.982T27.54,13.1a7.023,7.023,0,0,0,1.581.865,5.6,5.6,0,0,0,3.663.072,3.989,3.989,0,0,0,1.4-.794.358.358,0,0,1,.3-.065q.143.039.143.338A4.133,4.133,0,0,1,34,15.574a5.74,5.74,0,0,1-1.594,1.666,8.151,8.151,0,0,1-2.342,1.126,9.767,9.767,0,0,1-2.882.41,9.85,9.85,0,0,1-4.646-1.015,5.824,5.824,0,0,1-2.707-2.72.672.672,0,0,0-.612-.423.646.646,0,0,0-.612.423,5.754,5.754,0,0,1-2.694,2.72A9.881,9.881,0,0,1,11.254,18.775Z" transform="translate(-1.65 -7.936)"/>
</svg>
