<svg xmlns="http://www.w3.org/2000/svg" width="38.312" height="13" viewBox="0 0 38.312 13">
  <path id="beard-filled" d="M1.748,13.063a6.154,6.154,0,0,0,.782,3.048,7.789,7.789,0,0,0,2.164,2.441A10.663,10.663,0,0,0,7.9,20.17a12.835,12.835,0,0,0,3.9.58,13.248,13.248,0,0,0,5.334-1.018A9.016,9.016,0,0,0,20.9,16.785a9.114,9.114,0,0,0,3.769,2.947,13.212,13.212,0,0,0,5.32,1.018,12.816,12.816,0,0,0,3.911-.58,10.678,10.678,0,0,0,3.2-1.618,7.869,7.869,0,0,0,2.171-2.441,6.113,6.113,0,0,0,.789-3.048,4.055,4.055,0,0,0-.33-1.794,1.077,1.077,0,0,0-1.018-.661.933.933,0,0,0-.465.135,1.179,1.179,0,0,0-.4.378,3.788,3.788,0,0,1-3.331,1.564,4.507,4.507,0,0,1-2.151-.5,8.948,8.948,0,0,1-1.76-1.234q-.823-.735-1.692-1.47a8.585,8.585,0,0,0-1.949-1.234,5.989,5.989,0,0,0-2.535-.5,4.627,4.627,0,0,0-3.034.984,4.2,4.2,0,0,0-1.47,2.711h1.942a4.147,4.147,0,0,0-1.456-2.711,4.648,4.648,0,0,0-3.048-.984,5.989,5.989,0,0,0-2.535.5A8.585,8.585,0,0,0,12.88,9.483q-.87.735-1.692,1.47a9.04,9.04,0,0,1-1.753,1.234,4.468,4.468,0,0,1-2.144.5,4.093,4.093,0,0,1-3.358-1.578,1.444,1.444,0,0,0-.4-.364.863.863,0,0,0-.452-.135,1.067,1.067,0,0,0-1,.661A4.055,4.055,0,0,0,1.748,13.063Z" transform="translate(-1.748 -7.75)"/>
</svg>
