<svg xmlns="http://www.w3.org/2000/svg" width="25" height="25" viewBox="0 0 25 25">
  <path id="camera" d="M14.15,21.292a5.689,5.689,0,0,0,2.984-.81,6.189,6.189,0,0,0,2.16-2.167,5.9,5.9,0,0,0,0-5.967,6.189,6.189,0,0,0-2.16-2.167,5.689,5.689,0,0,0-2.984-.81,5.632,5.632,0,0,0-2.971.817,6.243,6.243,0,0,0-2.16,2.173,5.875,5.875,0,0,0,0,5.954,6.172,6.172,0,0,0,2.167,2.167A5.676,5.676,0,0,0,14.15,21.292Zm0-1.955a3.744,3.744,0,0,1-1.98-.547,4.266,4.266,0,0,1-1.453-1.46,3.9,3.9,0,0,1-.006-3.993,4.229,4.229,0,0,1,1.447-1.453,3.767,3.767,0,0,1,1.993-.547,3.834,3.834,0,0,1,2,.54A4.139,4.139,0,0,1,17.6,13.332a3.943,3.943,0,0,1,0,4.006,4.211,4.211,0,0,1-1.453,1.453A3.8,3.8,0,0,1,14.15,19.337Zm10.249-8V9.384L14.215,9.371v1.968ZM22.78,22.359l1.672-1.029L19.41,12.586l-1.7.977ZM12.466,26.218l1.71.926L19.243,18.4l-1.7-.977Zm-8.552-6.88v1.942l10.185.013V19.337ZM5.521,8.3,3.862,9.345,8.891,18.09l1.71-.99ZM15.848,4.445l-1.71-.926L9.071,12.264l1.7.977Zm-1.7,23.392a12,12,0,0,0,4.835-.984,12.809,12.809,0,0,0,6.687-6.687,12.02,12.02,0,0,0,.977-4.829,12.02,12.02,0,0,0-.977-4.829,12.814,12.814,0,0,0-6.7-6.694,12.066,12.066,0,0,0-4.835-.977,12,12,0,0,0-4.81.977,12.814,12.814,0,0,0-6.7,6.694,12.02,12.02,0,0,0-.977,4.829,11.952,11.952,0,0,0,.984,4.829,12.85,12.85,0,0,0,6.694,6.687A11.966,11.966,0,0,0,14.15,27.838Zm0-2.3a9.978,9.978,0,0,1-3.961-.791,10.173,10.173,0,0,1-5.427-5.433,10.424,10.424,0,0,1,0-7.935,10.213,10.213,0,0,1,5.421-5.446,9.932,9.932,0,0,1,3.954-.791,10,10,0,0,1,3.98.791,10.277,10.277,0,0,1,5.44,5.446,9.978,9.978,0,0,1,.791,3.961,9.787,9.787,0,0,1-.784,3.974,10.368,10.368,0,0,1-2.186,3.247,10.149,10.149,0,0,1-3.241,2.186A10.043,10.043,0,0,1,14.15,25.536Z" transform="translate(-1.65 -2.838)"/>
</svg>
