<svg xmlns="http://www.w3.org/2000/svg" width="25" height="25" viewBox="0 0 25 25">
  <g id="camera-filled" transform="translate(-1702.807 -4418.417)">
    <circle id="타원_18" data-name="타원 18" cx="12.359" cy="12.359" r="12.359" transform="translate(1702.948 4418.448)"/>
    <path id="패스_8057" data-name="패스 8057" d="M13.066,19.692a5.2,5.2,0,0,0,2.725-.74,5.652,5.652,0,0,0,1.973-1.979,5.387,5.387,0,0,0,0-5.45,5.652,5.652,0,0,0-1.973-1.979,5.2,5.2,0,0,0-2.725-.74,5.144,5.144,0,0,0-2.713.746A5.7,5.7,0,0,0,8.38,11.535a5.366,5.366,0,0,0,0,5.438,5.636,5.636,0,0,0,1.979,1.979A5.184,5.184,0,0,0,13.066,19.692Zm0-1.785a3.419,3.419,0,0,1-1.809-.5,3.9,3.9,0,0,1-1.327-1.333,3.562,3.562,0,0,1-.006-3.647A3.862,3.862,0,0,1,11.246,11.1a3.44,3.44,0,0,1,1.82-.5,3.5,3.5,0,0,1,1.826.493,3.78,3.78,0,0,1,1.327,1.327,3.6,3.6,0,0,1,0,3.659,3.845,3.845,0,0,1-1.327,1.327A3.47,3.47,0,0,1,13.066,17.907ZM22.427,10.6V8.816l-9.3-.012v1.8Zm-1.48,10.065,1.527-.94-4.6-7.987-1.55.893ZM11.528,24.19l1.562.846,4.628-7.987-1.55-.893Zm-7.81-6.284V19.68l9.3.012V17.907ZM5.186,7.829l-1.515.951,4.592,7.987,1.562-.9Zm9.431-3.523L13.055,3.46,8.427,11.447l1.55.893ZM13.066,25.67a10.957,10.957,0,0,0,4.416-.9,11.7,11.7,0,0,0,6.107-6.107,10.978,10.978,0,0,0,.893-4.41,10.978,10.978,0,0,0-.893-4.41,11.7,11.7,0,0,0-6.119-6.113,11.312,11.312,0,0,0-8.809,0A11.7,11.7,0,0,0,2.543,9.844a10.978,10.978,0,0,0-.893,4.41,10.916,10.916,0,0,0,.9,4.41,11.736,11.736,0,0,0,6.113,6.107A10.928,10.928,0,0,0,13.066,25.67Zm0-2.1a9.113,9.113,0,0,1-3.617-.722,9.291,9.291,0,0,1-4.956-4.962,9.52,9.52,0,0,1,0-7.247,9.327,9.327,0,0,1,4.95-4.974,9.071,9.071,0,0,1,3.612-.722,9.13,9.13,0,0,1,3.635.722,9.386,9.386,0,0,1,4.968,4.974,9.113,9.113,0,0,1,.722,3.617,8.939,8.939,0,0,1-.716,3.629,9.469,9.469,0,0,1-2,2.966,9.269,9.269,0,0,1-2.96,2A9.172,9.172,0,0,1,13.066,23.568Z" transform="translate(1702.351 4416.664)" fill="#fff"/>
    <g id="타원_17" data-name="타원 17" transform="translate(1702.807 4418.417)" fill="none" stroke="#000" stroke-width="1.5">
      <circle cx="12.5" cy="12.5" r="12.5" stroke="none"/>
      <circle cx="12.5" cy="12.5" r="11.75" fill="none"/>
    </g>
  </g>
</svg>
