<svg xmlns="http://www.w3.org/2000/svg" width="28.417" height="25" viewBox="0 0 28.417 25">
  <path id="home-filled" d="M19.776,24.847H13.633V16.978a.87.87,0,0,1,.256-.661.918.918,0,0,1,.661-.244h4.321a.842.842,0,0,1,.9.9ZM6.2,24.145a2.569,2.569,0,0,0,.708,1.929,2.7,2.7,0,0,0,1.97.69H24.538a2.686,2.686,0,0,0,1.958-.69,2.569,2.569,0,0,0,.708-1.929V14.7L17.419,6.5a.992.992,0,0,0-1.429,0L6.2,14.7ZM2.49,13.514a.94.94,0,0,0,.274.661.979.979,0,0,0,.75.292.908.908,0,0,0,.458-.119,3.835,3.835,0,0,0,.4-.262l11.917-10a.589.589,0,0,1,.845,0l11.917,10a3,3,0,0,0,.387.262.908.908,0,0,0,.458.119,1.091,1.091,0,0,0,.714-.244.823.823,0,0,0,.3-.673,1.006,1.006,0,0,0-.369-.81L18.145,2.323a2.119,2.119,0,0,0-2.869,0L2.871,12.74A.958.958,0,0,0,2.49,13.514ZM24.216,8.145,27.2,10.68V5.168a.8.8,0,0,0-.857-.857H25.074a.849.849,0,0,0-.619.232.833.833,0,0,0-.238.625Z" transform="translate(-2.49 -1.764)"/>
</svg>
