<svg xmlns="http://www.w3.org/2000/svg" width="29.871" height="25" viewBox="0 0 29.871 25">
  <path id="home" d="M-3.564,1.671H3.455V-6.756A.856.856,0,0,0,3.192-7.4a.94.94,0,0,0-.677-.251H-2.612a.952.952,0,0,0-.7.251.867.867,0,0,0-.256.648Zm-4.8,1.564H8.154A3.041,3.041,0,0,0,10.333,2.5,2.665,2.665,0,0,0,11.108.469V-12.463l-2.441-1.6V-.255a1.138,1.138,0,0,1-.3.852A1.2,1.2,0,0,1,7.5.889H-7.7A1.2,1.2,0,0,1-8.569.6a1.124,1.124,0,0,1-.305-.852v-13.8l-2.454,1.587V.469A2.643,2.643,0,0,0-10.541,2.5,3.068,3.068,0,0,0-8.362,3.235ZM-15-9.977a1.1,1.1,0,0,0,.342.805,1.261,1.261,0,0,0,.928.338,1.21,1.21,0,0,0,.549-.128,3.152,3.152,0,0,0,.488-.3L-.586-18.976a.83.83,0,0,1,.531-.21.83.83,0,0,1,.531.21L12.585-9.265a2.706,2.706,0,0,0,.476.3,1.184,1.184,0,0,0,.537.128,1.386,1.386,0,0,0,.9-.3.989.989,0,0,0,.366-.811,1.185,1.185,0,0,0-.488-.969L1.685-21.123a2.745,2.745,0,0,0-1.746-.642,2.7,2.7,0,0,0-1.733.642l-12.72,10.212A1.154,1.154,0,0,0-15-9.977Zm22.62-5.7,3.491,2.824v-5.672a.842.842,0,0,0-.238-.63.893.893,0,0,0-.653-.233h-1.7a.919.919,0,0,0-.653.233.82.82,0,0,0-.25.63Z" transform="translate(15.002 21.765)"/>
</svg>
